<svg height="512pt" viewBox="-31 0 512 512" width="512pt" xmlns="http://www.w3.org/2000/svg"><path d="m15 512c8.289062 0 15-6.710938 15-15v-106h390v106c0 8.289062 6.710938 15 15 15s15-6.710938 15-15c0-5.140625 0-139.46875 0-136 0-16.570312-13.429688-30-30-30h-390c-16.570312 0-30 13.429688-30 30 0 4.496094 0 139.050781 0 136 0 8.289062 6.710938 15 15 15zm0 0"/><path d="m360 482c8.289062 0 15-6.710938 15-15v-46h-30v46c0 8.289062 6.710938 15 15 15zm0 0"/><path d="m90 482c8.289062 0 15-6.710938 15-15v-46h-30v46c0 8.289062 6.710938 15 15 15zm0 0"/><path d="m15 121h45v75c0 8.289062 6.710938 15 15 15v90h30v-30h15c8.289062 0 15-6.710938 15-15s-6.710938-15-15-15h-15v-30c8.289062 0 15-6.710938 15-15v-75h210v75c0 8.289062 6.710938 15 15 15v30h-15c-8.289062 0-15 6.710938-15 15s6.710938 15 15 15h15v30h30v-90c8.289062 0 15-6.710938 15-15v-75h45c8.289062 0 15-6.710938 15-15s-6.710938-15-15-15h-45v-76c0-8.289062-6.710938-15-15-15h-30c-8.289062 0-15 6.710938-15 15v76h-210v-76c0-8.289062-6.710938-15-15-15h-30c-8.289062 0-15 6.710938-15 15v76h-45c-8.289062 0-15 6.710938-15 15s6.710938 15 15 15zm0 0"/></svg>