<svg height="480pt" viewBox="0 -63 480 479" width="480pt" xmlns="http://www.w3.org/2000/svg"><path d="m192 168.5h-16v40h-24v16h40zm0 0"/><path d="m304 168.5h-16v56h40v-16h-24zm0 0"/><path d="m32 256.5h16v96h176v-311.753906c.691406-21.464844-16.097656-39.457032-37.558594-40.246094h-116.839844c-21.480468.769531-38.292968 18.765625-37.601562 40.246094v71.753906h-32v80h32zm176 48h-96v-16h96zm0-32h-112v48h112v16h-144v-80h144zm-160-200h110.59375c18.414062 0 33.40625-17.945312 33.40625-40h-16c0 13.007812-8 24-17.40625 24h-110.59375v-15.753906c-.683594-12.640625 8.960938-23.46875 21.601562-24.246094h116.878907c12.605469.820312 22.203125 11.632812 21.519531 24.246094v199.753906h-160v-48h24c17.671875 0 32-14.328125 32-32v-16c0-17.671875-14.328125-32-32-32h-24zm-32 56h56c8.835938 0 16 7.164062 16 16v16c0 8.835938-7.164062 16-16 16h-56zm0 0"/><path d="m448 40.746094c.691406-21.464844-16.097656-39.457032-37.558594-40.246094h-116.839844c-21.480468.769531-38.292968 18.765625-37.601562 40.246094v311.753906h176v-96h16v-64h32v-80h-32zm-176 247.753906h96v16h-96zm144 48h-144v-16h112v-48h-112v-16h144zm16-96h-160v-199.753906c-.683594-12.640625 8.960938-23.46875 21.601562-24.246094h116.878907c12.605469.820312 22.203125 11.632812 21.519531 24.246094v15.753906h-110.59375c-9.40625 0-17.40625-10.992188-17.40625-24h-16c0 22.054688 14.992188 40 33.40625 40h110.59375v40h-24c-17.671875 0-32 14.328125-32 32v16c0 17.671875 14.328125 32 32 32h24zm32-64h-56c-8.835938 0-16-7.164062-16-16v-16c0-8.835938 7.164062-16 16-16h56zm0 0"/></svg>