<svg height="464pt" viewBox="0 -12 464 464" width="464pt" xmlns="http://www.w3.org/2000/svg"><path d="m440 176.347656h-24.800781c-2.703125-13.058594-11.722657-23.921875-24.0625-28.984375-1.300781-4.132812-4.246094-7.546875-8.144531-9.4375-3.898438-1.890625-8.40625-2.09375-12.457032-.554687l-109.734375-91.421875c6.515625-13.453125 2.847657-29.625-8.832031-38.953125s-28.257812-9.328125-39.9375 0-15.347656 25.5-8.832031 38.953125l-109.726563 91.421875c-4.050781-1.539063-8.558594-1.335938-12.457031.554687s-6.84375 5.304688-8.144531 9.4375c-12.34375 5.058594-21.363282 15.921875-24.070313 28.984375h-24.800781c-13.253906 0-24 10.746094-24 24v216c0 13.253906 10.746094 24 24 24h416c13.253906 0 24-10.746094 24-24v-216c0-13.253906-10.746094-24-24-24zm-41.472656 0h-45.054688c1.976563-5.507812 5.894532-10.105468 11.023438-12.925781 3 3.148437 7.15625 4.929687 11.503906 4.929687s8.503906-1.78125 11.503906-4.929687c5.128906 2.820313 9.046875 7.417969 11.023438 12.925781zm-271.328125 0c-2.558594-12.230468-10.679688-22.5625-21.960938-27.941406l108.167969-90.128906c11.085938 8.082031 26.121094 8.082031 37.203125 0l108.160156 90.109375c-11.285156 5.382812-19.410156 15.722656-21.96875 27.960937zm104.800781-160c8.835938 0 16 7.164063 16 16 .019531 3.78125-1.328125 7.4375-3.800781 10.296875-3.117188 3.496094-7.585938 5.484375-12.273438 5.460938-4.683593-.019531-9.132812-2.050781-12.222656-5.574219-2.417969-2.839844-3.730469-6.453125-3.703125-10.183594 0-8.835937 7.164062-16 16-16zm-155.503906 147.074219c3 3.148437 7.15625 4.929687 11.503906 4.929687s8.503906-1.78125 11.503906-4.929687c5.128906 2.820313 9.046875 7.417969 11.023438 12.925781h-45.054688c1.976563-5.507812 5.894532-10.105468 11.023438-12.925781zm371.503906 252.925781c0 4.417969-3.582031 8-8 8h-416c-4.417969 0-8-3.582031-8-8v-216c0-4.417968 3.582031-8 8-8h24.800781c2.703125 13.0625 11.722657 23.925782 24.0625 28.984375 2.25 6.832031 8.785157 11.320313 15.96875 10.976563 7.183594-.347656 13.253907-5.445313 14.835938-12.460938s-1.707031-14.226562-8.046875-17.625c-6.339844-3.398437-14.167969-2.148437-19.132813 3.054688-5.125-2.824219-9.042969-7.421875-11.015625-12.929688h333.054688c-1.976563 5.511719-5.894532 10.109375-11.023438 12.929688-4.964844-5.203125-12.792968-6.453125-19.132812-3.054688-6.339844 3.398438-9.628906 10.609375-8.046875 17.625s7.652343 12.113282 14.835937 12.460938c7.183594.34375 13.71875-4.144532 15.96875-10.976563 12.34375-5.058593 21.363282-15.921875 24.070313-28.984375h24.800781c4.417969 0 8 3.582032 8 8zm0 0"/><path d="m248 272.347656h6.910156l-22.910156 27.496094-22.910156-27.496094h6.910156v-16h-48v16h20.246094l35.753906 42.898438v61.101562h-16v16h48v-16h-16v-61.101562l35.753906-42.898438h20.246094v-16h-48zm0 0"/><path d="m144 256.347656h-96c-4.417969 0-8 3.582032-8 8v120c0 4.417969 3.582031 8 8 8h96c4.417969 0 8-3.582031 8-8v-56c0-4.417968-3.582031-8-8-8h-48c-4.417969 0-8 3.582032-8 8v16h16v-8h32v40h-80v-104h80v16h16v-24c0-4.417968-3.582031-8-8-8zm0 0"/><path d="m416 256.347656h-96c-4.417969 0-8 3.582032-8 8v120c0 4.417969 3.582031 8 8 8h24v-16h-16v-104h32v56h-8v16h32v-16h-8v-56h32v104h-16v16h24c4.417969 0 8-3.582031 8-8v-120c0-4.417968-3.582031-8-8-8zm0 0"/></svg>