<svg height="447pt" viewBox="-24 0 447 447.98411" width="447pt" xmlns="http://www.w3.org/2000/svg"><path d="m365.925781 423.984375c30.816407-45.289063 41.65625-101.253906 29.980469-154.773437-11.675781-53.523438-44.839844-99.886719-91.71875-128.226563-11.195312-6.867187-23.070312-12.566406-35.429688-17-10.914062-3.972656-22.160156-6.972656-33.601562-8.96875-34.488281-6.023437-69.953125-2.933594-102.878906 8.96875-12.367188 4.421875-24.246094 10.113281-35.441406 16.976563-46.890626 28.332031-80.070313 74.699218-91.753907 128.226562-11.683593 53.527344-.84375 109.5 29.976563 154.796875h21.433594v16h-9.28125c2.25 2.679687 4.394531 5.421875 6.792968 8h292.976563c2.398437-2.578125 4.542969-5.320313 6.792969-8h-281.28125v-16zm-310.066406-180.519531c-1.914063 3.949218-6.65625 5.617187-10.625 3.738281-3.96875-1.882813-5.675781-6.609375-3.832031-10.59375 17.453125-36.671875 46.992187-66.21875 83.65625-83.679687 2.59375-1.308594 5.691406-1.109376 8.09375.519531 2.402344 1.628906 3.734375 4.433593 3.476562 7.324219-.253906 2.890624-2.054687 5.417968-4.703125 6.601562-33.339843 15.878906-60.199219 42.746094-76.066406 76.089844zm0 0"/><path d="m98.027344 121.808594c.152344-.089844.3125-.152344.464844-.234375 3.9375-2.117188 8-4.070313 12-5.933594 1.097656-.503906 2.191406-.992187 3.296874-1.480469 2.328126-1.015625 4.664063-1.976562 7.023438-2.902344-.183594-2.472656-.320312-4.875-.320312-7.273437 0-44.183594 35.816406-80 80-80 44.183593 0 80 35.816406 80 80 0 2.398437-.136719 4.800781-.351563 7.273437 2.355469.925782 4.703125 1.898438 7.039063 2.910157 1.105468.480469 2.199218.976562 3.296874 1.480469 4 1.832031 8 3.769531 11.863282 5.855468.199218.105469.417968.191406.617187.304688 7.097657-40.839844-10.734375-81.996094-45.386719-104.746094-34.652343-22.75-79.503906-22.75-114.15625 0-34.652343 22.75-52.484374 63.90625-45.386718 104.746094zm0 0"/><path d="m200.492188 39.984375c-35.328126.039063-63.960938 28.671875-64 64v1.679687c1.671874-.519531 3.382812-.886718 5.070312-1.367187 1.976562-.5625 3.953125-1.105469 5.9375-1.601563 4.183594-1.054687 8.398438-1.96875 12.640625-2.773437 1.449219-.273437 2.886719-.578125 4.34375-.800781 5.398437-.914063 10.835937-1.621094 16.320313-2.121094.367187 0 .726562-.089844 1.101562-.121094 6.175781-.558594 12.363281-.894531 18.585938-.894531 6.222656 0 12.414062.335937 18.574218.863281.3125 0 .625.082032.945313.105469 5.546875.503906 11.050781 1.21875 16.511719 2.144531 1.402343.238282 2.792968.535156 4.183593.796875 4.304688.800781 8.578125 1.738281 12.800781 2.808594 1.953126.496094 3.894532 1.03125 5.832032 1.601563 1.703125.488281 3.425781.855468 5.113281 1.382812 0-.558594 0-1.128906 0-1.679688-.027344-35.324218-28.636719-63.960937-63.960937-64.023437zm0 0"/></svg>